HIERARCHY
ROOT Hips
{
	OFFSET 0.000000 0.000000 0.000000
	CHANNELS 6 Xposition Yposition Zposition Zrotation Yrotation Xrotation 
	JOINT LHipJoint
	{
		OFFSET 0.000000 0.000000 0.000000
		CHANNELS 3 Zrotation Yrotation Xrotation
		JOINT LeftUpLeg
		{
			OFFSET 1.363060 -1.794630 0.839290
			CHANNELS 3 Zrotation Yrotation Xrotation
			JOINT LeftLeg
			{
				OFFSET 2.448110 -6.726130 0.000000
				CHANNELS 3 Zrotation Yrotation Xrotation
				JOINT LeftFoot
				{
					OFFSET 2.562200 -7.039590 0.000000
					CHANNELS 3 Zrotation Yrotation Xrotation
					JOINT LeftToeBase
					{
						OFFSET 0.157640 -0.433110 2.322550
						CHANNELS 3 Zrotation Yrotation Xrotation
						End Site
						{
							OFFSET 0.000000 0.000000 0.000000
						}
					}
				}
			}
		}
	}
	JOINT RHipJoint
	{
		OFFSET 0.000000 0.000000 0.000000
		CHANNELS 3 Zrotation Yrotation Xrotation
		JOINT RightUpLeg
		{
			OFFSET -1.305520 -1.794630 0.839290
			CHANNELS 3 Zrotation Yrotation Xrotation
			JOINT RightLeg
			{
				OFFSET -2.542530 -6.985550 0.000000
				CHANNELS 3 Zrotation Yrotation Xrotation
				JOINT RightFoot
				{
					OFFSET -2.568260 -7.056230 0.000000
					CHANNELS 3 Zrotation Yrotation Xrotation
					JOINT RightToeBase
					{
						OFFSET -0.164730 -0.452590 2.363150
						CHANNELS 3 Zrotation Yrotation Xrotation
						End Site
						{
							OFFSET 0.000000 0.000000 0.000000
						}
					}
				}
			}
		}
	}
}
MOTION
Frames: 11
Frame Time: 0.008333
17.267464 20.458310 1.626528 22.859861 -80.094138 -9.418735 -11.822712 3.704351 6.722095 -1.942060 -22.280898 -24.223937 2.906143 4.196465 87.057247 2.893532 10.779539 28.794014 4.856400 0.000000 -66.174000 13.261030 -3.756366 4.159989 0.653784 15.053014 -19.099095 -4.955466 -5.606276 96.752464 -1.633349 -8.862502 -8.641030 0.127100 -0.000000 -71.159000
17.133551 20.543059 1.615517 22.449317 -80.319267 -9.367158 -12.090222 3.727124 6.635505 -1.331408 -22.773290 -24.960116 3.331602 4.640719 92.013249 2.919549 10.555005 29.881739 4.853400 -0.000000 -66.043600 13.622141 -3.900112 4.109119 0.147306 15.940971 -19.604418 -5.907703 -6.102572 103.117928 -1.547531 -8.533985 -10.855807 0.387600 0.000000 -69.866800
16.997533 20.619879 1.606475 21.734041 -80.547519 -8.946574 -12.374107 3.754776 6.582886 -0.505633 -23.408799 -25.672513 3.791143 5.077190 96.532201 2.887529 9.743773 31.031791 4.514499 0.000000 -65.448100 13.974255 -4.042584 4.078250 -0.421980 16.942561 -20.019651 -6.974637 -6.577261 109.139763 -1.452710 -8.099978 -13.069514 0.611600 -0.000001 -68.206200
16.858677 20.689996 1.600189 20.657224 -80.776894 -8.110445 -12.669119 3.787035 6.565510 0.526508 -24.199740 -26.343654 4.277020 5.500105 100.575240 2.800105 8.379237 32.125951 3.823500 -0.000000 -64.575400 14.303644 -4.177805 4.073339 -1.050292 18.076193 -20.326245 -8.134073 -7.015642 114.738506 -1.364705 -7.638162 -15.249696 0.800000 0.000000 -66.253499
16.716595 20.754569 1.597366 19.166673 -81.000242 -6.816012 -12.968802 3.823816 6.582604 1.745360 -25.147233 -26.960261 4.778099 5.903700 104.115149 2.665911 6.557703 33.069762 2.815400 -0.000000 -63.580500 14.594952 -4.299314 4.098614 -1.727972 19.345198 -20.518372 -9.346568 -7.402222 119.822901 -1.298597 -7.221131 -17.325911 0.961000 0.000000 -64.146000
16.571353 20.814527 1.598473 17.235222 -81.204890 -5.049945 -13.264843 3.864310 6.631780 3.116734 -26.241115 -27.515419 5.278761 6.282155 107.135072 2.498432 4.431037 33.806084 1.576400 0.000000 -62.621299 14.834140 -4.400096 4.154520 -2.439926 20.730886 -20.610248 -10.556861 -7.724138 124.305106 -1.266307 -6.911359 -19.204336 1.106900 0.000000 -62.074000
16.422827 20.870069 1.603412 14.902957 -81.373039 -2.861810 -13.546523 3.907141 6.710353 4.590006 -27.459749 -28.010989 5.759003 6.629129 109.628573 2.314353 2.187817 34.315736 0.229000 -0.000000 -61.826600 15.011423 -4.473661 4.236768 -3.165789 22.186501 -20.638329 -11.696180 -7.973924 128.102872 -1.274314 -6.757902 -20.794487 1.250700 0.000000 -60.231600
16.271457 20.921040 1.611422 12.295153 -81.484043 -0.390149 -13.801323 3.949469 6.815207 6.098088 -28.770878 -28.455760 6.196560 6.938376 111.602227 2.131812 0.033449 34.611008 -1.086700 0.000000 -61.317100 15.124514 -4.515083 4.333846 -3.879766 23.633811 -20.652754 -12.693569 -8.152688 131.157632 -1.322910 -6.794065 -22.041044 1.403300 0.000000 -58.751400
16.117665 20.967148 1.621149 9.629968 -81.521013 2.134859 -14.015955 3.986413 6.943385 7.563162 -30.130931 -28.865599 6.569049 7.203078 113.069970 1.968447 -1.833507 34.716196 -2.234100 0.000000 -61.073001 15.179175 -4.522142 4.428756 -4.552535 24.970289 -20.707535 -13.485770 -8.269677 133.436026 -1.407392 -7.035936 -22.946079 1.572100 0.000000 -57.664100
15.961856 21.007683 1.630903 7.164154 -81.474020 4.446106 -14.178528 4.011362 7.091818 8.906344 -31.490859 -29.254489 6.855356 7.416585 114.047962 1.840320 -3.236784 34.671056 -3.093600 0.000000 -61.190200 15.186327 -4.495821 4.501043 -5.147258 26.084400 -20.841950 -14.026338 -8.339130 134.931401 -1.519647 -7.477485 -23.570432 1.761899 -0.000000 -56.891300
15.804659 21.042015 1.639094 5.111768 -81.343254 6.318993 -14.281457 4.016479 7.255947 10.061555 -32.798229 -29.632661 7.040236 7.573486 114.555004 1.759462 -4.043832 34.503189 -3.578200 0.000001 -61.633100 15.157687 -4.439090 4.531723 -5.623267 26.878882 -21.074047 -14.290572 -8.375395 135.661752 -1.649059 -8.085610 -24.013065 1.974300 0.000000 -56.280800
